ply
format ascii 1.0
element vertex 129
property double x
property double y
property double z
property uchar red
property uchar green
property uchar blue
end_header
0.043968829964995 -1.364591466451074 0.999416326057677 69 29 50
0.134824859606602 -1.637159555375895 0.000000000000000 116 61 39
0.134824859606602 -1.455447496092681 1.090272355699284 40 6 7
0.134824859606602 -1.364591466451074 1.181128385340891 18 5 4
0.134824859606602 -1.364591466451074 1.271984414982498 74 12 11
0.134824859606602 -1.273735436809467 1.090272355699284 88 52 36
0.134824859606602 -1.273735436809467 1.181128385340891 113 68 55
0.134824859606602 -1.273735436809467 1.271984414982498 159 96 74
0.134824859606602 -1.273735436809467 1.453696474265712 160 100 58
0.134824859606602 -1.273735436809467 1.544552503907319 174 101 77
0.134824859606602 -1.273735436809467 1.635408533548926 41 30 29
0.134824859606602 -1.182879407167860 1.544552503907319 22 16 17
0.225680889248209 -1.637159555375895 0.090856029641607 91 64 52
0.225680889248209 -1.546303525734288 0.454280148208035 35 7 8
0.225680889248209 -1.546303525734288 1.090272355699284 28 7 7
0.225680889248209 -1.455447496092681 0.363424118566428 52 36 34
0.225680889248209 -1.455447496092681 0.454280148208035 32 8 5
0.225680889248209 -1.455447496092681 0.545136177849642 35 8 7
0.225680889248209 -1.455447496092681 0.635992207491249 39 7 9
0.225680889248209 -1.455447496092681 0.726848237132856 47 8 7
0.225680889248209 -1.455447496092681 0.817704266774463 46 9 6
0.225680889248209 -1.455447496092681 0.908560296416070 40 6 11
0.225680889248209 -1.455447496092681 0.999416326057677 40 7 7
0.225680889248209 -1.455447496092681 1.090272355699284 34 6 5
0.225680889248209 -1.455447496092681 1.181128385340891 92 14 9
0.225680889248209 -1.455447496092681 1.271984414982498 223 135 108
0.225680889248209 -1.364591466451074 0.454280148208035 47 23 35
0.225680889248209 -1.364591466451074 0.545136177849642 23 7 6
0.225680889248209 -1.364591466451074 0.635992207491249 26 6 4
0.225680889248209 -1.364591466451074 0.726848237132856 35 7 6
0.225680889248209 -1.364591466451074 0.817704266774463 35 7 5
0.225680889248209 -1.364591466451074 0.908560296416070 32 8 7
0.225680889248209 -1.364591466451074 0.999416326057677 30 5 5
0.225680889248209 -1.364591466451074 1.090272355699284 33 4 6
0.225680889248209 -1.364591466451074 1.181128385340891 63 10 10
0.225680889248209 -1.364591466451074 1.271984414982498 48 9 11
0.225680889248209 -1.364591466451074 1.362840444624105 143 98 76
0.225680889248209 -1.273735436809467 0.817704266774463 211 124 96
0.225680889248209 -1.273735436809467 1.181128385340891 135 85 69
0.225680889248209 -1.273735436809467 1.271984414982498 50 9 8
0.225680889248209 -1.273735436809467 1.362840444624105 75 48 33
0.225680889248209 -1.273735436809467 1.453696474265712 60 35 39
0.225680889248209 -1.273735436809467 1.544552503907319 74 36 29
0.225680889248209 -1.182879407167860 1.453696474265712 92 64 41
0.225680889248209 -1.182879407167860 1.544552503907319 29 20 14
0.316536918889816 -1.546303525734288 0.999416326057677 37 17 20
0.316536918889816 -1.546303525734288 1.090272355699284 76 13 9
0.316536918889816 -1.455447496092681 0.454280148208035 36 9 8
0.316536918889816 -1.455447496092681 0.545136177849642 45 8 7
0.316536918889816 -1.455447496092681 0.635992207491249 52 10 8
0.316536918889816 -1.455447496092681 0.726848237132856 46 8 9
0.316536918889816 -1.455447496092681 0.817704266774463 44 7 8
0.316536918889816 -1.455447496092681 0.908560296416070 48 9 6
0.316536918889816 -1.455447496092681 0.999416326057677 34 7 5
0.316536918889816 -1.455447496092681 1.090272355699284 81 12 10
0.316536918889816 -1.455447496092681 1.181128385340891 138 67 25
0.316536918889816 -1.455447496092681 1.271984414982498 86 12 7
0.316536918889816 -1.455447496092681 1.362840444624105 115 19 13
0.316536918889816 -1.364591466451074 0.454280148208035 28 5 7
0.316536918889816 -1.364591466451074 0.545136177849642 26 7 3
0.316536918889816 -1.364591466451074 0.635992207491249 35 6 1
0.316536918889816 -1.364591466451074 0.726848237132856 35 7 6
0.316536918889816 -1.364591466451074 0.817704266774463 38 8 1
0.316536918889816 -1.364591466451074 0.908560296416070 37 9 3
0.316536918889816 -1.364591466451074 0.999416326057677 25 6 5
0.316536918889816 -1.364591466451074 1.090272355699284 65 11 10
0.316536918889816 -1.364591466451074 1.181128385340891 49 9 11
0.316536918889816 -1.364591466451074 1.271984414982498 184 111 91
0.316536918889816 -1.364591466451074 1.362840444624105 211 74 95
0.316536918889816 -1.364591466451074 1.453696474265712 186 135 80
0.316536918889816 -1.273735436809467 0.454280148208035 99 66 74
0.316536918889816 -1.273735436809467 0.545136177849642 203 113 96
0.316536918889816 -1.273735436809467 0.635992207491249 213 126 105
0.316536918889816 -1.273735436809467 0.726848237132856 218 124 99
0.316536918889816 -1.273735436809467 0.817704266774463 106 65 43
0.316536918889816 -1.273735436809467 0.908560296416070 137 81 63
0.316536918889816 -1.273735436809467 1.181128385340891 51 9 7
0.316536918889816 -1.273735436809467 1.271984414982498 59 37 30
0.316536918889816 -1.273735436809467 1.362840444624105 124 79 69
0.316536918889816 -1.273735436809467 1.453696474265712 85 65 54
0.316536918889816 -1.273735436809467 1.544552503907319 71 77 57
0.316536918889816 -1.182879407167860 1.544552503907319 33 29 22
0.407392948531423 -1.455447496092681 0.545136177849642 55 9 7
0.407392948531423 -1.455447496092681 0.635992207491249 46 8 6
0.407392948531423 -1.455447496092681 0.726848237132856 44 8 7
0.407392948531423 -1.455447496092681 0.817704266774463 46 8 6
0.407392948531423 -1.455447496092681 0.908560296416070 39 7 7
0.407392948531423 -1.455447496092681 0.999416326057677 46 6 0
0.407392948531423 -1.455447496092681 1.090272355699284 104 18 13
0.407392948531423 -1.455447496092681 1.181128385340891 85 13 9
0.407392948531423 -1.364591466451074 0.454280148208035 28 7 12
0.407392948531423 -1.364591466451074 0.545136177849642 37 6 8
0.407392948531423 -1.364591466451074 0.635992207491249 37 7 7
0.407392948531423 -1.364591466451074 0.726848237132856 42 7 6
0.407392948531423 -1.364591466451074 0.817704266774463 39 6 5
0.407392948531423 -1.364591466451074 0.908560296416070 29 7 6
0.407392948531423 -1.364591466451074 0.999416326057677 46 8 8
0.407392948531423 -1.364591466451074 1.090272355699284 69 12 9
0.407392948531423 -1.364591466451074 1.181128385340891 218 138 104
0.407392948531423 -1.364591466451074 1.271984414982498 235 144 118
0.407392948531423 -1.364591466451074 1.362840444624105 95 16 12
0.407392948531423 -1.364591466451074 1.453696474265712 255 189 143
0.407392948531423 -1.273735436809467 0.363424118566428 42 18 27
0.407392948531423 -1.273735436809467 0.454280148208035 114 78 75
0.407392948531423 -1.273735436809467 0.545136177849642 183 112 95
0.407392948531423 -1.273735436809467 0.635992207491249 210 116 90
0.407392948531423 -1.273735436809467 0.726848237132856 123 79 57
0.407392948531423 -1.273735436809467 0.817704266774463 134 81 61
0.407392948531423 -1.273735436809467 0.908560296416070 90 56 50
0.407392948531423 -1.273735436809467 1.362840444624105 209 135 101
0.407392948531423 -1.273735436809467 1.453696474265712 50 40 43
0.407392948531423 -1.182879407167860 0.000000000000000 91 48 31
0.407392948531423 -1.182879407167860 0.545136177849642 43 10 16
0.498248978173030 -1.364591466451074 0.454280148208035 38 7 8
0.498248978173030 -1.364591466451074 0.545136177849642 40 7 6
0.498248978173030 -1.364591466451074 0.635992207491249 42 8 7
0.498248978173030 -1.364591466451074 0.726848237132856 43 5 7
0.498248978173030 -1.364591466451074 0.817704266774463 34 6 6
0.498248978173030 -1.364591466451074 1.453696474265712 255 172 107
0.498248978173030 -1.273735436809467 0.272568088924821 33 6 5
0.498248978173030 -1.273735436809467 0.363424118566428 53 8 4
0.498248978173030 -1.273735436809467 0.545136177849642 173 106 86
0.498248978173030 -1.182879407167860 0.000000000000000 154 74 59
0.498248978173030 -1.182879407167860 0.090856029641607 156 94 68
0.498248978173030 -1.182879407167860 0.181712059283214 99 73 69
0.498248978173030 -1.182879407167860 0.545136177849642 95 17 14
0.589105007814637 -1.455447496092681 1.453696474265712 157 90 81
0.679961037456244 -1.455447496092681 1.453696474265712 255 219 182
0.770817067097851 -1.455447496092681 1.544552503907319 107 77 59
