ply
format ascii 1.0
element vertex 129
property double x
property double y
property double z
end_header
0.043968829964995 -1.364591466451074 0.999416326057677
0.134824859606602 -1.637159555375895 0.000000000000000
0.134824859606602 -1.455447496092681 1.090272355699284
0.134824859606602 -1.364591466451074 1.181128385340891
0.134824859606602 -1.364591466451074 1.271984414982498
0.134824859606602 -1.273735436809467 1.090272355699284
0.134824859606602 -1.273735436809467 1.181128385340891
0.134824859606602 -1.273735436809467 1.271984414982498
0.134824859606602 -1.273735436809467 1.453696474265712
0.134824859606602 -1.273735436809467 1.544552503907319
0.134824859606602 -1.273735436809467 1.635408533548926
0.134824859606602 -1.182879407167860 1.544552503907319
0.225680889248209 -1.637159555375895 0.090856029641607
0.225680889248209 -1.546303525734288 0.454280148208035
0.225680889248209 -1.546303525734288 1.090272355699284
0.225680889248209 -1.455447496092681 0.363424118566428
0.225680889248209 -1.455447496092681 0.454280148208035
0.225680889248209 -1.455447496092681 0.545136177849642
0.225680889248209 -1.455447496092681 0.635992207491249
0.225680889248209 -1.455447496092681 0.726848237132856
0.225680889248209 -1.455447496092681 0.817704266774463
0.225680889248209 -1.455447496092681 0.908560296416070
0.225680889248209 -1.455447496092681 0.999416326057677
0.225680889248209 -1.455447496092681 1.090272355699284
0.225680889248209 -1.455447496092681 1.181128385340891
0.225680889248209 -1.455447496092681 1.271984414982498
0.225680889248209 -1.364591466451074 0.454280148208035
0.225680889248209 -1.364591466451074 0.545136177849642
0.225680889248209 -1.364591466451074 0.635992207491249
0.225680889248209 -1.364591466451074 0.726848237132856
0.225680889248209 -1.364591466451074 0.817704266774463
0.225680889248209 -1.364591466451074 0.908560296416070
0.225680889248209 -1.364591466451074 0.999416326057677
0.225680889248209 -1.364591466451074 1.090272355699284
0.225680889248209 -1.364591466451074 1.181128385340891
0.225680889248209 -1.364591466451074 1.271984414982498
0.225680889248209 -1.364591466451074 1.362840444624105
0.225680889248209 -1.273735436809467 0.817704266774463
0.225680889248209 -1.273735436809467 1.181128385340891
0.225680889248209 -1.273735436809467 1.271984414982498
0.225680889248209 -1.273735436809467 1.362840444624105
0.225680889248209 -1.273735436809467 1.453696474265712
0.225680889248209 -1.273735436809467 1.544552503907319
0.225680889248209 -1.182879407167860 1.453696474265712
0.225680889248209 -1.182879407167860 1.544552503907319
0.316536918889816 -1.546303525734288 0.999416326057677
0.316536918889816 -1.546303525734288 1.090272355699284
0.316536918889816 -1.455447496092681 0.454280148208035
0.316536918889816 -1.455447496092681 0.545136177849642
0.316536918889816 -1.455447496092681 0.635992207491249
0.316536918889816 -1.455447496092681 0.726848237132856
0.316536918889816 -1.455447496092681 0.817704266774463
0.316536918889816 -1.455447496092681 0.908560296416070
0.316536918889816 -1.455447496092681 0.999416326057677
0.316536918889816 -1.455447496092681 1.090272355699284
0.316536918889816 -1.455447496092681 1.181128385340891
0.316536918889816 -1.455447496092681 1.271984414982498
0.316536918889816 -1.455447496092681 1.362840444624105
0.316536918889816 -1.364591466451074 0.454280148208035
0.316536918889816 -1.364591466451074 0.545136177849642
0.316536918889816 -1.364591466451074 0.635992207491249
0.316536918889816 -1.364591466451074 0.726848237132856
0.316536918889816 -1.364591466451074 0.817704266774463
0.316536918889816 -1.364591466451074 0.908560296416070
0.316536918889816 -1.364591466451074 0.999416326057677
0.316536918889816 -1.364591466451074 1.090272355699284
0.316536918889816 -1.364591466451074 1.181128385340891
0.316536918889816 -1.364591466451074 1.271984414982498
0.316536918889816 -1.364591466451074 1.362840444624105
0.316536918889816 -1.364591466451074 1.453696474265712
0.316536918889816 -1.273735436809467 0.454280148208035
0.316536918889816 -1.273735436809467 0.545136177849642
0.316536918889816 -1.273735436809467 0.635992207491249
0.316536918889816 -1.273735436809467 0.726848237132856
0.316536918889816 -1.273735436809467 0.817704266774463
0.316536918889816 -1.273735436809467 0.908560296416070
0.316536918889816 -1.273735436809467 1.181128385340891
0.316536918889816 -1.273735436809467 1.271984414982498
0.316536918889816 -1.273735436809467 1.362840444624105
0.316536918889816 -1.273735436809467 1.453696474265712
0.316536918889816 -1.273735436809467 1.544552503907319
0.316536918889816 -1.182879407167860 1.544552503907319
0.407392948531423 -1.455447496092681 0.545136177849642
0.407392948531423 -1.455447496092681 0.635992207491249
0.407392948531423 -1.455447496092681 0.726848237132856
0.407392948531423 -1.455447496092681 0.817704266774463
0.407392948531423 -1.455447496092681 0.908560296416070
0.407392948531423 -1.455447496092681 0.999416326057677
0.407392948531423 -1.455447496092681 1.090272355699284
0.407392948531423 -1.455447496092681 1.181128385340891
0.407392948531423 -1.364591466451074 0.454280148208035
0.407392948531423 -1.364591466451074 0.545136177849642
0.407392948531423 -1.364591466451074 0.635992207491249
0.407392948531423 -1.364591466451074 0.726848237132856
0.407392948531423 -1.364591466451074 0.817704266774463
0.407392948531423 -1.364591466451074 0.908560296416070
0.407392948531423 -1.364591466451074 0.999416326057677
0.407392948531423 -1.364591466451074 1.090272355699284
0.407392948531423 -1.364591466451074 1.181128385340891
0.407392948531423 -1.364591466451074 1.271984414982498
0.407392948531423 -1.364591466451074 1.362840444624105
0.407392948531423 -1.364591466451074 1.453696474265712
0.407392948531423 -1.273735436809467 0.363424118566428
0.407392948531423 -1.273735436809467 0.454280148208035
0.407392948531423 -1.273735436809467 0.545136177849642
0.407392948531423 -1.273735436809467 0.635992207491249
0.407392948531423 -1.273735436809467 0.726848237132856
0.407392948531423 -1.273735436809467 0.817704266774463
0.407392948531423 -1.273735436809467 0.908560296416070
0.407392948531423 -1.273735436809467 1.362840444624105
0.407392948531423 -1.273735436809467 1.453696474265712
0.407392948531423 -1.182879407167860 0.000000000000000
0.407392948531423 -1.182879407167860 0.545136177849642
0.498248978173030 -1.364591466451074 0.454280148208035
0.498248978173030 -1.364591466451074 0.545136177849642
0.498248978173030 -1.364591466451074 0.635992207491249
0.498248978173030 -1.364591466451074 0.726848237132856
0.498248978173030 -1.364591466451074 0.817704266774463
0.498248978173030 -1.364591466451074 1.453696474265712
0.498248978173030 -1.273735436809467 0.272568088924821
0.498248978173030 -1.273735436809467 0.363424118566428
0.498248978173030 -1.273735436809467 0.545136177849642
0.498248978173030 -1.182879407167860 0.000000000000000
0.498248978173030 -1.182879407167860 0.090856029641607
0.498248978173030 -1.182879407167860 0.181712059283214
0.498248978173030 -1.182879407167860 0.545136177849642
0.589105007814637 -1.455447496092681 1.453696474265712
0.679961037456244 -1.455447496092681 1.453696474265712
0.770817067097851 -1.455447496092681 1.544552503907319
