ply
format ascii 1.0
element vertex 284
property double x
property double y
property double z
end_header
-0.264903436950365 -1.355306302661589 0.843432665301749
-0.222731803685277 -1.355306302661589 0.843432665301749
-0.222731803685277 -1.355306302661589 0.885604298566837
-0.222731803685277 -1.313134669396502 0.843432665301749
-0.222731803685277 -1.313134669396502 0.885604298566837
-0.180560170420190 -1.355306302661589 0.885604298566837
-0.180560170420190 -1.355306302661589 0.885604298566837
-0.180560170420190 -1.313134669396502 0.843432665301749
-0.180560170420190 -1.313134669396502 0.885604298566837
-0.138388537155102 -1.355306302661589 0.885604298566837
-0.138388537155102 -1.355306302661589 0.885604298566837
-0.138388537155102 -1.313134669396502 0.885604298566837
-0.138388537155102 -1.313134669396502 0.927775931831924
-0.096216903890015 -1.313134669396502 0.927775931831924
-0.096216903890015 -1.313134669396502 0.927775931831924
-0.054045270624927 -1.355306302661589 0.927775931831924
-0.054045270624927 -1.355306302661589 0.927775931831924
-0.054045270624927 -1.313134669396502 0.927775931831924
-0.054045270624927 -1.313134669396502 0.927775931831924
-0.011873637359840 -1.355306302661589 0.927775931831924
-0.011873637359840 -1.355306302661589 0.969947565097012
-0.011873637359840 -1.313134669396502 0.969947565097012
-0.011873637359840 -1.313134669396502 0.969947565097012
0.030297995905248 -1.355306302661589 0.969947565097012
0.030297995905248 -1.355306302661589 1.012119198362099
0.030297995905248 -1.313134669396502 0.969947565097012
0.030297995905248 -1.313134669396502 1.012119198362099
0.072469629170335 -1.355306302661589 0.969947565097012
0.072469629170335 -1.355306302661589 1.054290831627186
0.072469629170335 -1.313134669396502 1.012119198362099
0.072469629170335 -1.313134669396502 1.138634098157361
0.072469629170335 -1.270963036131414 1.180805731422449
0.072469629170335 -1.270963036131414 1.560350430808236
0.072469629170335 -1.228791402866327 1.518178797543148
0.072469629170335 -1.228791402866327 1.602522064073324
0.072469629170335 -1.186619769601239 1.602522064073324
0.072469629170335 -1.186619769601239 1.602522064073324
0.114641262435422 -1.481821202456852 1.012119198362099
0.114641262435422 -1.481821202456852 1.012119198362099
0.114641262435422 -1.439649569191764 1.054290831627186
0.114641262435422 -1.439649569191764 1.054290831627186
0.114641262435422 -1.355306302661589 1.138634098157361
0.114641262435422 -1.355306302661589 1.222977364687536
0.114641262435422 -1.313134669396502 1.054290831627186
0.114641262435422 -1.313134669396502 1.560350430808236
0.114641262435422 -1.270963036131414 1.054290831627186
0.114641262435422 -1.270963036131414 1.602522064073324
0.114641262435422 -1.228791402866327 1.180805731422449
0.114641262435422 -1.228791402866327 1.602522064073324
0.114641262435422 -1.186619769601239 1.518178797543148
0.114641262435422 -1.186619769601239 1.602522064073324
0.114641262435422 -1.144448136336152 1.560350430808236
0.114641262435422 -1.144448136336152 1.560350430808236
0.156812895700510 -1.608336102252114 0.000000000000000
0.156812895700510 -1.608336102252114 0.000000000000000
0.156812895700510 -1.523992835721939 1.054290831627186
0.156812895700510 -1.523992835721939 1.054290831627186
0.156812895700510 -1.481821202456852 1.054290831627186
0.156812895700510 -1.481821202456852 1.096462464892274
0.156812895700510 -1.439649569191764 1.054290831627186
0.156812895700510 -1.439649569191764 1.222977364687536
0.156812895700510 -1.397477935926676 0.632574498976312
0.156812895700510 -1.397477935926676 1.265148997952624
0.156812895700510 -1.355306302661589 0.759089398771574
0.156812895700510 -1.355306302661589 1.307320631217711
0.156812895700510 -1.313134669396502 1.138634098157361
0.156812895700510 -1.313134669396502 1.602522064073324
0.156812895700510 -1.270963036131414 1.096462464892274
0.156812895700510 -1.270963036131414 1.644693697338411
0.156812895700510 -1.228791402866327 1.138634098157361
0.156812895700510 -1.228791402866327 1.644693697338411
0.156812895700510 -1.186619769601239 1.476007164278061
0.156812895700510 -1.186619769601239 1.602522064073324
0.156812895700510 -1.144448136336152 1.476007164278061
0.156812895700510 -1.144448136336152 1.602522064073324
0.198984528965597 -1.608336102252114 0.000000000000000
0.198984528965597 -1.608336102252114 0.042171633265087
0.198984528965597 -1.566164468987026 0.000000000000000
0.198984528965597 -1.566164468987026 0.000000000000000
0.198984528965597 -1.523992835721939 1.096462464892274
0.198984528965597 -1.523992835721939 1.138634098157361
0.198984528965597 -1.481821202456852 0.379544699385787
0.198984528965597 -1.481821202456852 1.265148997952624
0.198984528965597 -1.439649569191764 0.463887965915962
0.198984528965597 -1.439649569191764 1.265148997952624
0.198984528965597 -1.397477935926676 0.506059599181049
0.198984528965597 -1.397477935926676 1.307320631217711
0.198984528965597 -1.355306302661589 0.674746132241399
0.198984528965597 -1.355306302661589 1.349492264482799
0.198984528965597 -1.313134669396502 0.759089398771574
0.198984528965597 -1.313134669396502 1.602522064073324
0.198984528965597 -1.270963036131414 1.138634098157361
0.198984528965597 -1.270963036131414 1.644693697338411
0.198984528965597 -1.228791402866327 1.180805731422449
0.198984528965597 -1.228791402866327 1.644693697338411
0.198984528965597 -1.186619769601239 1.433835531012974
0.198984528965597 -1.186619769601239 1.602522064073324
0.198984528965597 -1.144448136336152 1.476007164278061
0.198984528965597 -1.144448136336152 1.560350430808236
0.241156162230685 -1.608336102252114 0.000000000000000
0.241156162230685 -1.608336102252114 0.126514899795262
0.241156162230685 -1.566164468987026 0.000000000000000
0.241156162230685 -1.566164468987026 0.168686533060350
0.241156162230685 -1.523992835721939 0.210858166325437
0.241156162230685 -1.523992835721939 1.222977364687536
0.241156162230685 -1.481821202456852 0.295201432855612
0.241156162230685 -1.481821202456852 1.265148997952624
0.241156162230685 -1.439649569191764 0.421716332650875
0.241156162230685 -1.439649569191764 1.307320631217711
0.241156162230685 -1.397477935926676 0.421716332650875
0.241156162230685 -1.397477935926676 1.349492264482799
0.241156162230685 -1.355306302661589 0.463887965915962
0.241156162230685 -1.355306302661589 1.433835531012974
0.241156162230685 -1.313134669396502 0.674746132241399
0.241156162230685 -1.313134669396502 1.560350430808236
0.241156162230685 -1.270963036131414 0.759089398771574
0.241156162230685 -1.270963036131414 1.602522064073324
0.241156162230685 -1.228791402866327 1.222977364687536
0.241156162230685 -1.228791402866327 1.602522064073324
0.241156162230685 -1.186619769601239 1.476007164278061
0.241156162230685 -1.186619769601239 1.602522064073324
0.241156162230685 -1.144448136336152 1.476007164278061
0.241156162230685 -1.144448136336152 1.560350430808236
0.283327795495772 -1.608336102252114 0.042171633265087
0.283327795495772 -1.608336102252114 0.084343266530175
0.283327795495772 -1.566164468987026 0.042171633265087
0.283327795495772 -1.566164468987026 0.210858166325437
0.283327795495772 -1.523992835721939 0.168686533060350
0.283327795495772 -1.523992835721939 1.307320631217711
0.283327795495772 -1.481821202456852 0.253029799590525
0.283327795495772 -1.481821202456852 1.307320631217711
0.283327795495772 -1.439649569191764 0.337373066120700
0.283327795495772 -1.439649569191764 1.349492264482799
0.283327795495772 -1.397477935926676 0.421716332650875
0.283327795495772 -1.397477935926676 1.391663897747886
0.283327795495772 -1.355306302661589 0.421716332650875
0.283327795495772 -1.355306302661589 1.433835531012974
0.283327795495772 -1.313134669396502 0.463887965915962
0.283327795495772 -1.313134669396502 1.476007164278061
0.283327795495772 -1.270963036131414 0.674746132241399
0.283327795495772 -1.270963036131414 1.602522064073324
0.283327795495772 -1.228791402866327 1.265148997952624
0.283327795495772 -1.228791402866327 1.602522064073324
0.283327795495772 -1.186619769601239 1.518178797543148
0.283327795495772 -1.186619769601239 1.602522064073324
0.283327795495772 -1.144448136336152 1.518178797543148
0.283327795495772 -1.144448136336152 1.602522064073324
0.325499428760860 -1.523992835721939 0.337373066120700
0.325499428760860 -1.523992835721939 1.265148997952624
0.325499428760860 -1.481821202456852 0.379544699385787
0.325499428760860 -1.481821202456852 1.307320631217711
0.325499428760860 -1.439649569191764 0.506059599181049
0.325499428760860 -1.439649569191764 1.349492264482799
0.325499428760860 -1.397477935926676 0.463887965915962
0.325499428760860 -1.397477935926676 1.391663897747886
0.325499428760860 -1.355306302661589 0.463887965915962
0.325499428760860 -1.355306302661589 1.433835531012974
0.325499428760860 -1.313134669396502 0.463887965915962
0.325499428760860 -1.313134669396502 1.433835531012974
0.325499428760860 -1.270963036131414 0.463887965915962
0.325499428760860 -1.270963036131414 1.560350430808236
0.325499428760860 -1.228791402866327 1.307320631217711
0.325499428760860 -1.228791402866327 1.602522064073324
0.325499428760860 -1.186619769601239 1.560350430808236
0.325499428760860 -1.186619769601239 1.560350430808236
0.367671062025947 -1.523992835721939 0.885604298566837
0.367671062025947 -1.523992835721939 1.180805731422449
0.367671062025947 -1.481821202456852 0.548231232446137
0.367671062025947 -1.481821202456852 1.307320631217711
0.367671062025947 -1.439649569191764 0.506059599181049
0.367671062025947 -1.439649569191764 1.349492264482799
0.367671062025947 -1.397477935926676 0.463887965915962
0.367671062025947 -1.397477935926676 1.433835531012974
0.367671062025947 -1.355306302661589 0.421716332650875
0.367671062025947 -1.355306302661589 1.433835531012974
0.367671062025947 -1.313134669396502 0.463887965915962
0.367671062025947 -1.313134669396502 1.433835531012974
0.367671062025947 -1.270963036131414 0.463887965915962
0.367671062025947 -1.270963036131414 1.433835531012974
0.367671062025947 -1.228791402866327 0.506059599181049
0.367671062025947 -1.228791402866327 1.349492264482799
0.409842695291035 -1.523992835721939 0.885604298566837
0.409842695291035 -1.523992835721939 0.927775931831924
0.409842695291035 -1.481821202456852 0.548231232446137
0.409842695291035 -1.481821202456852 1.180805731422449
0.409842695291035 -1.439649569191764 0.463887965915962
0.409842695291035 -1.439649569191764 1.265148997952624
0.409842695291035 -1.397477935926676 0.421716332650875
0.409842695291035 -1.397477935926676 1.433835531012974
0.409842695291035 -1.355306302661589 0.421716332650875
0.409842695291035 -1.355306302661589 1.476007164278061
0.409842695291035 -1.313134669396502 0.379544699385787
0.409842695291035 -1.313134669396502 1.433835531012974
0.409842695291035 -1.270963036131414 0.337373066120700
0.409842695291035 -1.270963036131414 1.433835531012974
0.409842695291035 -1.228791402866327 0.421716332650875
0.409842695291035 -1.228791402866327 0.674746132241399
0.409842695291035 -1.186619769601239 0.000000000000000
0.409842695291035 -1.186619769601239 0.548231232446137
0.452014328556122 -1.523992835721939 0.716917765506487
0.452014328556122 -1.523992835721939 0.801261032036662
0.452014328556122 -1.481821202456852 0.463887965915962
0.452014328556122 -1.481821202456852 0.927775931831924
0.452014328556122 -1.439649569191764 0.463887965915962
0.452014328556122 -1.439649569191764 1.012119198362099
0.452014328556122 -1.397477935926676 0.421716332650875
0.452014328556122 -1.397477935926676 1.433835531012974
0.452014328556122 -1.355306302661589 0.379544699385787
0.452014328556122 -1.355306302661589 1.476007164278061
0.452014328556122 -1.313134669396502 0.337373066120700
0.452014328556122 -1.313134669396502 1.433835531012974
0.452014328556122 -1.270963036131414 0.295201432855612
0.452014328556122 -1.270963036131414 0.843432665301749
0.452014328556122 -1.228791402866327 0.210858166325437
0.452014328556122 -1.228791402866327 0.674746132241399
0.452014328556122 -1.186619769601239 0.000000000000000
0.452014328556122 -1.186619769601239 0.590402865711224
0.452014328556122 -1.144448136336152 0.506059599181049
0.452014328556122 -1.144448136336152 0.506059599181049
0.494185961821210 -1.439649569191764 0.506059599181049
0.494185961821210 -1.439649569191764 1.433835531012974
0.494185961821210 -1.397477935926676 0.463887965915962
0.494185961821210 -1.397477935926676 1.476007164278061
0.494185961821210 -1.355306302661589 0.379544699385787
0.494185961821210 -1.355306302661589 1.433835531012974
0.494185961821210 -1.313134669396502 0.295201432855612
0.494185961821210 -1.313134669396502 0.674746132241399
0.494185961821210 -1.270963036131414 0.253029799590525
0.494185961821210 -1.270963036131414 0.590402865711224
0.494185961821210 -1.228791402866327 0.168686533060350
0.494185961821210 -1.228791402866327 0.590402865711224
0.494185961821210 -1.186619769601239 0.000000000000000
0.494185961821210 -1.186619769601239 0.548231232446137
0.494185961821210 -1.144448136336152 0.042171633265087
0.494185961821210 -1.144448136336152 0.548231232446137
0.536357595086297 -1.439649569191764 1.433835531012974
0.536357595086297 -1.439649569191764 1.476007164278061
0.536357595086297 -1.397477935926676 1.391663897747886
0.536357595086297 -1.397477935926676 1.476007164278061
0.536357595086297 -1.270963036131414 0.548231232446137
0.536357595086297 -1.270963036131414 0.548231232446137
0.536357595086297 -1.228791402866327 0.548231232446137
0.536357595086297 -1.228791402866327 0.548231232446137
0.578529228351385 -1.439649569191764 1.433835531012974
0.578529228351385 -1.439649569191764 1.476007164278061
0.578529228351385 -1.397477935926676 1.433835531012974
0.578529228351385 -1.397477935926676 1.476007164278061
0.620700861616472 -1.481821202456852 1.476007164278061
0.620700861616472 -1.481821202456852 1.476007164278061
0.620700861616472 -1.439649569191764 1.433835531012974
0.620700861616472 -1.439649569191764 1.476007164278061
0.662872494881559 -1.481821202456852 1.476007164278061
0.662872494881559 -1.481821202456852 1.518178797543148
0.662872494881559 -1.439649569191764 1.476007164278061
0.662872494881559 -1.439649569191764 1.518178797543148
0.705044128146647 -1.481821202456852 1.476007164278061
0.705044128146647 -1.481821202456852 1.518178797543148
0.705044128146647 -1.439649569191764 1.476007164278061
0.705044128146647 -1.439649569191764 1.518178797543148
0.747215761411734 -1.523992835721939 1.518178797543148
0.747215761411734 -1.523992835721939 1.518178797543148
0.747215761411734 -1.481821202456852 1.518178797543148
0.747215761411734 -1.481821202456852 1.560350430808236
0.747215761411734 -1.439649569191764 1.518178797543148
0.747215761411734 -1.439649569191764 1.518178797543148
0.789387394676822 -1.523992835721939 1.518178797543148
0.789387394676822 -1.523992835721939 1.560350430808236
0.789387394676822 -1.481821202456852 1.518178797543148
0.789387394676822 -1.481821202456852 1.560350430808236
0.831559027941909 -1.566164468987026 1.602522064073324
0.831559027941909 -1.566164468987026 1.602522064073324
0.831559027941909 -1.523992835721939 1.560350430808236
0.831559027941909 -1.523992835721939 1.602522064073324
0.831559027941909 -1.481821202456852 1.560350430808236
0.831559027941909 -1.481821202456852 1.560350430808236
0.873730661206997 -1.566164468987026 1.602522064073324
0.873730661206997 -1.566164468987026 1.602522064073324
0.873730661206997 -1.523992835721939 1.560350430808236
0.873730661206997 -1.523992835721939 1.602522064073324
0.915902294472084 -1.608336102252114 1.602522064073324
0.915902294472084 -1.608336102252114 1.602522064073324
0.915902294472084 -1.566164468987026 1.560350430808236
0.915902294472084 -1.566164468987026 1.602522064073324
0.915902294472084 -1.523992835721939 1.560350430808236
